<?xml version="1.0" standalone="no"?>
<!DOCTYPE svg PUBLIC "-//W3C//DTD SVG 20010904//EN"
 "http://www.w3.org/TR/2001/REC-SVG-20010904/DTD/svg10.dtd">
<svg version="1.0" xmlns="http://www.w3.org/2000/svg"
 width="1280.000000pt" height="1068.000000pt" viewBox="0 0 1280.000000 1068.000000"
 preserveAspectRatio="xMidYMid meet">
<metadata>
Created by potrace 1.15, written by Peter Selinger 2001-2017
</metadata>
<g transform="translate(0.000000,1068.000000) scale(0.100000,-0.100000)"
fill="#000000" stroke="none">
<path d="M2250 10437 c-132 -72 -151 -93 -175 -198 -36 -160 -27 -405 29 -824
62 -453 77 -737 44 -835 -8 -25 -75 -130 -148 -235 -850 -1208 -1296 -2163
-1302 -2783 -1 -179 22 -235 126 -307 52 -36 64 -40 119 -40 36 1 74 7 92 17
17 8 41 19 55 23 l25 7 -21 -23 c-12 -13 -33 -43 -48 -66 -20 -33 -32 -43 -54
-43 -15 0 -36 -7 -46 -15 -19 -14 -18 -15 17 -15 20 0 37 -5 37 -11 0 -6 -25
-63 -55 -126 -68 -144 -69 -165 -15 -310 85 -226 153 -333 246 -388 39 -23 53
-26 91 -20 24 3 52 14 62 24 10 10 31 21 46 25 16 4 39 16 52 26 13 10 37 22
53 25 17 4 32 11 35 16 4 5 35 9 71 9 68 0 80 9 39 28 -50 23 -18 63 47 61 23
-1 26 -3 11 -6 -15 -3 -23 -12 -23 -24 0 -24 29 -25 71 -3 17 8 33 14 35 11 8
-8 -24 -83 -85 -202 -59 -113 -62 -123 -59 -178 5 -61 27 -103 67 -123 13 -7
28 -17 34 -23 6 -6 21 -11 34 -11 17 0 24 -8 32 -37 23 -82 84 -143 178 -179
44 -17 52 -17 222 4 151 19 224 22 516 22 200 0 335 -4 330 -9 -6 -5 -102 -48
-215 -96 -233 -99 -266 -116 -370 -193 -354 -263 -515 -673 -497 -1262 13
-389 83 -681 238 -979 142 -274 398 -555 592 -649 86 -42 273 -105 417 -142
160 -41 685 -150 720 -150 56 0 148 27 239 70 75 36 297 166 376 220 29 20
238 90 435 146 190 54 350 139 425 227 144 167 215 566 215 1206 0 293 -12
493 -40 648 -17 95 -25 113 -101 250 -95 170 -164 284 -243 398 l-55 80 56 13
c76 17 86 26 69 61 -57 108 -230 184 -569 250 -194 38 -361 61 -732 103 -78 9
-331 13 -870 13 -565 0 -766 3 -785 12 -14 6 -19 12 -12 12 7 1 10 6 7 11 -3
6 -1 10 5 10 6 0 8 5 5 10 -10 17 -39 11 -53 -10 -16 -26 -37 -25 -131 6 -142
47 -191 109 -191 242 0 123 29 203 110 302 21 25 41 56 45 70 10 34 68 148
121 241 24 42 44 79 44 82 0 4 -13 4 -30 1 -31 -7 -39 3 -19 23 22 22 -10 21
-120 -4 -99 -23 -129 -35 -245 -100 -251 -144 -428 -222 -548 -244 -88 -16
-146 3 -171 56 -34 72 -16 239 38 345 31 60 102 147 152 184 34 26 42 39 57
97 9 37 35 103 56 147 70 145 83 193 78 277 -5 72 -15 105 -25 78 -8 -22 -21
-14 -28 17 -6 29 -25 52 -25 30 0 -22 -106 -123 -211 -200 -124 -92 -321 -220
-337 -220 -16 0 -42 95 -42 156 0 129 32 237 187 629 198 498 360 826 596
1200 544 864 1402 1728 2161 2174 477 280 894 403 1496 441 351 21 538 10
1735 -106 l370 -36 90 -46 c324 -162 984 -517 1240 -667 323 -189 346 -206
558 -433 105 -114 295 -312 421 -442 532 -547 798 -895 1010 -1320 130 -262
198 -490 227 -768 12 -122 8 -257 -8 -273 -16 -16 -69 12 -165 89 -158 127
-183 140 -245 123 -21 -6 -47 -17 -57 -24 -17 -12 -14 -17 34 -73 38 -43 79
-115 156 -271 57 -116 104 -214 104 -217 0 -3 -46 -6 -102 -7 -114 -1 -104 -8
41 -31 l84 -13 50 -125 c51 -128 89 -264 102 -359 l7 -54 -33 6 c-19 3 -87 28
-151 56 -65 28 -170 73 -233 101 -156 67 -226 90 -279 90 -40 0 -46 -3 -52
-25 -11 -44 45 -144 159 -283 64 -79 65 -97 4 -89 -43 6 -18 -9 45 -27 45 -13
72 -30 122 -77 80 -75 124 -142 147 -227 26 -92 8 -149 -58 -186 -37 -20 -526
-73 -803 -86 -192 -10 -250 -16 -395 -46 -188 -39 -650 -143 -905 -204 -148
-35 -191 -41 -410 -55 -135 -8 -350 -22 -479 -30 l-235 -15 -120 -56 c-129
-59 -328 -166 -411 -220 -40 -26 -107 -47 -349 -109 -230 -59 -301 -74 -310
-64 -8 9 -6 10 12 6 12 -3 22 -2 22 3 0 4 108 36 240 70 132 35 238 65 236 67
-8 9 -511 -128 -525 -142 -10 -10 -11 -15 -4 -15 7 0 21 -10 32 -22 l21 -21
195 34 c107 19 195 31 195 27 0 -13 -51 -111 -124 -238 -79 -137 -95 -186
-130 -390 -44 -266 -57 -414 -63 -712 -7 -369 9 -580 63 -795 22 -90 64 -194
75 -187 5 3 6 -3 2 -12 -5 -13 -3 -15 7 -9 9 5 11 4 6 -4 -18 -28 101 -174
196 -239 115 -79 244 -130 529 -210 97 -28 187 -56 200 -62 13 -7 95 -60 182
-117 288 -192 386 -216 687 -173 612 87 1054 307 1263 630 171 265 329 724
387 1130 30 205 30 466 1 607 -51 245 -133 410 -298 600 -53 60 -182 177 -153
138 11 -15 7 -13 -15 5 -45 37 -52 44 -36 35 10 -5 12 -4 7 4 -4 6 -12 9 -17
5 -12 -7 -41 15 -34 26 3 4 -3 7 -13 6 -9 0 -16 5 -14 12 1 8 -2 11 -7 8 -6
-4 -39 12 -76 34 -85 52 -258 138 -364 181 -46 19 -77 35 -68 37 9 2 14 9 11
15 -2 7 10 20 26 29 53 30 1161 260 1793 371 348 62 323 47 313 185 -7 94 -49
322 -65 349 -8 14 -10 15 -11 3 0 -10 -3 -11 -8 -4 -4 6 -25 20 -47 32 -65 33
-161 109 -207 165 -23 29 -35 46 -25 38 19 -15 23 -2 5 18 -7 7 75 -31 182
-84 280 -138 347 -145 398 -45 37 75 28 237 -28 455 -15 60 -29 117 -31 124
-3 11 10 18 44 24 26 5 47 13 47 18 0 5 -5 9 -11 9 -5 0 -7 5 -4 10 3 6 -1 10
-10 10 -19 0 -150 114 -160 138 -3 9 17 -5 45 -33 50 -49 51 -50 78 -35 62 35
100 235 89 470 -12 253 -88 491 -336 1058 -187 428 -169 401 -498 744 -221
230 -293 342 -293 456 0 62 20 283 45 487 60 510 86 793 86 937 -1 195 -28
365 -67 413 -17 21 -17 17 3 -32 4 -11 -14 -1 -43 22 -27 23 -62 47 -79 54
-92 41 -388 62 -590 42 -297 -30 -504 -70 -1027 -197 -214 -52 -399 -94 -413
-94 -40 0 -430 133 -556 189 -123 56 -205 75 -529 125 -443 68 -731 88 -1304
92 -268 1 -490 5 -493 7 -5 6 160 16 432 26 177 7 181 8 65 9 -261 4 -688 -32
-714 -58 -6 -6 -26 -10 -45 -10 -20 0 -112 -16 -206 -36 -279 -58 -401 -48
-990 82 -137 30 -331 72 -430 94 -321 70 -575 107 -783 115 l-127 4 -115 -62z
m2883 -174 c-7 -2 -21 -2 -30 0 -10 3 -4 5 12 5 17 0 24 -2 18 -5z m54 -9 c-3
-3 -12 -4 -19 -1 -8 3 -5 6 6 6 11 1 17 -2 13 -5z m4726 -290 c73 -19 171 -64
160 -74 -15 -14 -189 -48 -298 -60 -60 -6 -126 -13 -145 -15 -19 -2 -10 2 20
9 30 8 45 14 33 15 -29 1 -31 6 -35 75 l-3 57 -50 -5 -50 -5 60 14 c74 17 220
12 308 -11z m-380 -11 c-7 -2 -21 -2 -30 0 -10 3 -4 5 12 5 17 0 24 -2 18 -5z
m-56 -9 c-3 -3 -12 -4 -19 -1 -8 3 -5 6 6 6 11 1 17 -2 13 -5z m-60 -10 c-3
-3 -12 -4 -19 -1 -8 3 -5 6 6 6 11 1 17 -2 13 -5z m170 -130 c-3 -3 -12 -4
-19 -1 -8 3 -5 6 6 6 11 1 17 -2 13 -5z m-40 -10 c-3 -3 -12 -4 -19 -1 -8 3
-5 6 6 6 11 1 17 -2 13 -5z m461 -131 c24 -12 44 -32 57 -58 28 -56 25 -191
-9 -415 -66 -444 -130 -816 -141 -829 -11 -11 -23 -6 -72 32 -32 24 -67 55
-78 68 -13 16 -8 13 15 -7 50 -44 117 -94 125 -94 4 0 -3 9 -17 20 -20 15 -27
34 -37 97 -7 43 -16 105 -22 138 -5 33 -13 94 -18 135 -10 77 -33 242 -77 550
-53 365 -53 357 -21 370 12 5 16 9 9 9 -7 1 -39 -12 -72 -29 -82 -41 -90 -37
-10 6 l65 35 133 -5 c101 -4 143 -10 170 -23z m-438 -48 c0 -2 -22 -16 -50
-30 -27 -14 -50 -23 -50 -20 0 2 21 16 48 29 53 28 52 28 52 21z m-129 -812
c13 -16 12 -17 -3 -4 -10 7 -18 15 -18 17 0 8 8 3 21 -13z m85 -95 l29 -33
-32 29 c-31 28 -38 36 -30 36 2 0 16 -15 33 -32z m144 -155 l75 -78 -77 75
c-72 69 -83 80 -75 80 1 0 36 -35 77 -77z m553 -575 c17 -25 109 -126 203
-224 94 -99 189 -199 211 -224 47 -53 123 -159 123 -173 0 -5 -12 8 -26 29
-38 57 -113 140 -293 327 -136 142 -223 245 -256 307 -13 25 3 6 38 -42z
m-3553 -4594 c0 -20 -44 -108 -114 -227 -31 -53 -68 -121 -81 -151 -37 -84
-81 -327 -117 -656 -7 -67 -12 -249 -13 -440 0 -246 -2 -300 -8 -220 -11 144
-1 573 18 755 23 226 73 510 101 577 13 31 57 115 97 185 40 70 79 143 86 161
14 34 31 43 31 16z m-307 -1889 c4 -54 4 -61 -3 -30 -9 40 -13 112 -6 104 2
-2 6 -35 9 -74z m14 -117 c-3 -7 -5 -2 -5 12 0 14 2 19 5 13 2 -7 2 -19 0 -25z
m10 -50 c-3 -7 -5 -2 -5 12 0 14 2 19 5 13 2 -7 2 -19 0 -25z m10 -50 c-3 -7
-5 -2 -5 12 0 14 2 19 5 13 2 -7 2 -19 0 -25z m20 -70 c-3 -8 -6 -5 -6 6 -1
11 2 17 5 13 3 -3 4 -12 1 -19z"/>
<path d="M9668 9973 c7 -3 16 -2 19 1 4 3 -2 6 -13 5 -11 0 -14 -3 -6 -6z"/>
<path d="M9738 9843 c7 -3 16 -2 19 1 4 3 -2 6 -13 5 -11 0 -14 -3 -6 -6z"/>
<path d="M9931 8514 c0 -11 3 -14 6 -6 3 7 2 16 -1 19 -3 4 -6 -2 -5 -13z"/>
<path d="M9921 8454 c0 -11 3 -14 6 -6 3 7 2 16 -1 19 -3 4 -6 -2 -5 -13z"/>
<path d="M9912 8400 c0 -14 2 -19 5 -12 2 6 2 18 0 25 -3 6 -5 1 -5 -13z"/>
<path d="M5882 10293 c37 -2 100 -2 140 0 40 1 10 3 -67 3 -77 0 -110 -1 -73
-3z"/>
<path d="M6147 10283 c18 -2 50 -2 70 0 21 2 7 4 -32 4 -38 0 -55 -2 -38 -4z"/>
<path d="M6323 10273 c15 -2 37 -2 50 0 12 2 0 4 -28 4 -27 0 -38 -2 -22 -4z"/>
<path d="M6443 10263 c15 -2 37 -2 50 0 12 2 0 4 -28 4 -27 0 -38 -2 -22 -4z"/>
<path d="M6543 10253 c9 -2 25 -2 35 0 9 3 1 5 -18 5 -19 0 -27 -2 -17 -5z"/>
<path d="M6653 10243 c9 -2 23 -2 30 0 6 3 -1 5 -18 5 -16 0 -22 -2 -12 -5z"/>
<path d="M6728 10233 c6 -2 18 -2 25 0 6 3 1 5 -13 5 -14 0 -19 -2 -12 -5z"/>
<path d="M6808 10223 c6 -2 18 -2 25 0 6 3 1 5 -13 5 -14 0 -19 -2 -12 -5z"/>
<path d="M6948 10203 c6 -2 18 -2 25 0 6 3 1 5 -13 5 -14 0 -19 -2 -12 -5z"/>
<path d="M7138 10173 c7 -3 16 -2 19 1 4 3 -2 6 -13 5 -11 0 -14 -3 -6 -6z"/>
<path d="M7248 10153 c7 -3 16 -2 19 1 4 3 -2 6 -13 5 -11 0 -14 -3 -6 -6z"/>
<path d="M3971 8580 c-228 -127 -420 -285 -586 -484 -199 -239 -375 -605 -464
-966 -22 -88 -33 -170 -46 -352 l-18 -236 37 -51 c80 -109 215 -203 401 -281
189 -78 489 -155 755 -192 141 -19 523 -16 685 6 154 21 394 80 520 129 184
70 400 192 541 305 91 72 133 200 134 407 0 343 -99 656 -298 935 -134 189
-381 411 -605 545 -260 154 -588 256 -877 271 l-105 5 -74 -41z m248 -291 c38
-16 51 -27 51 -42 0 -12 -40 -89 -89 -172 -123 -206 -151 -313 -151 -570 0
-362 93 -592 275 -680 54 -27 70 -29 165 -30 120 0 144 9 216 80 99 100 174
322 202 608 10 90 5 97 -70 97 -68 1 -191 26 -234 48 -69 36 -97 74 -102 140
-3 45 1 68 16 99 27 52 103 120 182 162 l62 33 -8 37 c-14 74 -13 76 33 74 55
-2 120 -32 162 -73 106 -106 157 -287 168 -590 11 -312 -40 -586 -149 -805
-134 -268 -318 -396 -547 -383 -215 12 -379 184 -479 498 -58 183 -82 352 -82
580 0 333 61 606 171 767 38 55 126 143 144 143 7 0 35 -10 64 -21z m-587
-386 c-8 -75 -15 -246 -16 -413 -1 -314 9 -417 64 -625 78 -301 234 -526 452
-652 l82 -48 -79 -13 c-72 -11 -91 -10 -183 8 -271 53 -566 184 -841 370 l-96
65 2 74 c9 318 297 985 559 1294 31 37 60 67 63 67 4 0 0 -57 -7 -127z m1869
-280 c94 -137 203 -393 251 -593 27 -115 27 -245 -1 -328 -28 -81 -56 -125
-120 -188 -91 -89 -174 -128 -547 -254 -189 -64 -344 -116 -344 -116 0 1 34
37 76 81 280 296 422 522 469 744 24 118 35 290 35 576 l0 279 65 -64 c36 -36
88 -98 116 -137z m-1033 -1510 c-5 -25 -55 -27 -103 -4 l-40 19 73 1 c65 1 73
-1 70 -16z"/>
<path d="M7966 8545 c-772 -360 -1210 -813 -1345 -1392 -43 -183 -43 -391 -2
-515 21 -64 21 -64 144 -154 219 -162 253 -183 368 -235 240 -107 502 -180
776 -215 176 -23 499 -23 658 0 413 59 793 209 972 383 99 96 135 184 134 328
-2 239 -128 629 -337 1048 -204 407 -378 607 -628 723 -137 63 -335 104 -496
103 -84 0 -86 0 -244 -74z m429 -260 c133 -59 219 -196 267 -425 25 -124 36
-470 19 -621 -41 -352 -166 -650 -327 -780 -187 -151 -447 -135 -620 38 -181
181 -296 498 -311 859 -10 242 24 447 100 604 55 114 206 245 302 262 36 6 28
-27 -10 -41 -92 -33 -139 -195 -151 -521 -15 -379 46 -635 181 -758 65 -60
126 -83 222 -84 151 -1 248 60 342 216 75 126 111 305 82 413 -11 41 -15 44
-151 118 -77 42 -151 90 -164 106 -38 44 -50 100 -37 171 17 97 73 166 164
204 26 10 49 24 51 31 3 6 -11 60 -29 120 -19 59 -35 111 -35 116 0 11 47 -1
105 -28z m630 -400 c149 -200 256 -454 374 -885 73 -268 94 -358 88 -372 -10
-27 -372 -266 -463 -306 -171 -76 -347 -127 -546 -161 -136 -24 -328 -38 -313
-24 6 6 51 36 100 68 127 82 310 219 379 284 224 213 296 524 252 1078 -8 98
-18 248 -21 333 l-7 155 52 -50 c29 -27 76 -81 105 -120z m-1825 -525 c56
-508 208 -861 449 -1043 82 -63 125 -86 225 -122 l89 -32 -46 -11 c-158 -40
-417 17 -686 151 -216 108 -387 236 -477 358 l-37 50 17 107 c66 411 202 745
387 946 l54 59 7 -179 c3 -98 11 -226 18 -284z"/>
<path d="M6705 5880 c-33 -16 -96 -39 -140 -52 -71 -21 -99 -23 -260 -22 -156
1 -194 4 -285 27 l-105 25 -125 -68 c-69 -37 -137 -74 -153 -82 l-27 -14 122
-100 c137 -112 362 -290 480 -378 66 -49 80 -65 89 -100 15 -55 6 -169 -20
-235 -58 -154 -239 -336 -391 -395 -184 -72 -455 12 -700 215 -45 38 -87 69
-92 69 -10 0 -108 -63 -107 -70 0 -3 44 -39 97 -81 112 -88 225 -155 334 -198
131 -53 191 -64 308 -59 120 6 223 37 440 131 l124 54 166 -81 c292 -143 372
-158 550 -97 197 67 452 211 533 300 49 55 64 106 43 154 -19 46 -45 48 -107
8 -42 -27 -130 -114 -194 -192 -106 -129 -495 -170 -698 -75 -69 33 -139 108
-162 174 -23 66 -30 176 -16 245 18 85 73 185 142 261 36 39 171 151 316 262
139 107 253 198 253 202 -1 16 -141 116 -215 152 -107 53 -127 55 -200 20z
m121 -134 c37 -37 42 -67 20 -119 -46 -108 -262 -278 -392 -308 -42 -10 -60
-9 -108 5 -73 22 -217 96 -332 172 -86 58 -194 153 -194 172 0 5 89 12 208 16
341 11 564 36 675 76 73 26 84 25 123 -14z"/>
<path d="M8012 5590 c-12 -20 -10 -20 1000 -20 556 0 1009 2 1006 5 -2 3 -56
12 -118 20 -94 12 -270 15 -994 15 -870 0 -881 0 -894 -20z"/>
<path d="M7435 5561 c3 -6 40 -17 82 -27 62 -14 106 -16 237 -11 171 7 227 15
234 35 3 9 -60 12 -278 12 -172 0 -279 -4 -275 -9z"/>
<path d="M10040 5561 c32 -20 142 -33 318 -38 122 -4 182 -2 182 5 0 13 -72
20 -275 27 -88 3 -178 8 -200 11 -28 3 -35 2 -25 -5z"/>
<path d="M2800 5460 c-11 -20 -8 -20 1001 -20 557 0 1009 3 1006 7 -4 4 -51
12 -105 19 -73 10 -323 13 -994 14 -887 0 -897 0 -908 -20z"/>
<path d="M2280 5415 c-22 -24 -29 -25 -134 -25 -100 0 -112 -2 -124 -20 -12
-19 -10 -19 101 -13 68 3 118 11 127 18 11 10 85 15 267 21 233 6 252 8 256
25 5 18 -6 19 -232 19 l-238 0 -23 -25z"/>
<path d="M4859 5424 c55 -17 257 -34 407 -34 l114 0 0 25 0 25 -282 -1 c-257
-1 -279 -2 -239 -15z"/>
<path d="M11331 5366 c12 -10 60 -16 54 -6 -3 5 -18 10 -32 10 -15 0 -24 -2
-22 -4z"/>
<path d="M1802 5330 c-11 -18 -23 -20 -103 -20 -76 0 -94 -3 -105 -17 -7 -10
-14 -21 -14 -24 0 -4 42 -4 93 -2 78 4 95 8 111 26 16 19 31 23 107 25 60 3
92 8 100 18 10 12 -3 14 -82 14 -83 0 -96 -2 -107 -20z"/>
<path d="M7501 5326 c12 -10 59 -15 59 -6 0 5 -14 10 -32 10 -17 0 -29 -2 -27
-4z"/>
<path d="M11520 5326 c0 -2 11 -6 25 -8 14 -3 25 -1 25 3 0 5 -11 9 -25 9 -14
0 -25 -2 -25 -4z"/>
<path d="M7720 5285 c112 -19 230 -28 230 -18 0 5 -57 14 -127 21 -158 15
-202 14 -103 -3z"/>
<path d="M11670 5276 c0 -2 7 -7 16 -10 8 -3 12 -2 9 4 -6 10 -25 14 -25 6z"/>
<path d="M1493 5247 c42 -7 62 -6 70 2 8 8 -7 11 -58 10 l-70 -2 58 -10z"/>
<path d="M8023 5251 c70 -23 307 -40 307 -22 0 4 -53 11 -117 15 -65 4 -140 9
-168 11 -40 4 -45 3 -22 -4z"/>
<path d="M11828 5233 c6 -2 18 -2 25 0 6 3 1 5 -13 5 -14 0 -19 -2 -12 -5z"/>
<path d="M5292 5195 l-12 -25 -202 0 c-186 0 -204 -2 -215 -18 -10 -17 -7 -18
41 -15 28 1 120 4 204 6 97 3 157 8 164 15 8 8 48 12 105 12 93 0 93 0 93 25
0 25 -1 25 -83 25 -80 0 -84 -1 -95 -25z"/>
<path d="M8405 5215 c6 -3 61 -13 123 -23 84 -14 112 -15 112 -6 0 7 -27 14
-77 18 -43 4 -98 9 -123 11 -25 3 -40 3 -35 0z"/>
<path d="M11945 5196 c35 -18 65 -20 65 -6 0 6 -10 10 -22 10 -13 0 -34 3 -48
5 -22 5 -21 3 5 -9z"/>
<path d="M8795 5149 c22 -4 56 -8 75 -7 33 0 32 1 -10 9 -25 4 -58 7 -75 7
-26 0 -25 -1 10 -9z"/>
<path d="M12108 5143 c7 -3 16 -2 19 1 4 3 -2 6 -13 5 -11 0 -14 -3 -6 -6z"/>
<path d="M4479 5113 c-13 -15 -1 -16 165 -10 243 8 260 27 24 27 -151 0 -177
-2 -189 -17z"/>
<path d="M7380 5115 c0 -10 9 -15 27 -15 29 0 29 2 -4 19 -19 10 -23 9 -23 -4z"/>
<path d="M9065 5109 c22 -4 51 -8 65 -7 23 0 22 1 -5 8 -16 4 -46 8 -65 8
l-35 0 40 -9z"/>
<path d="M816 5073 l-19 -26 54 7 c49 7 68 18 69 39 0 4 -19 7 -42 7 -35 -1
-47 -6 -62 -27z"/>
<path d="M4175 5074 l-17 -27 142 5 c138 5 159 10 160 41 0 4 -60 7 -134 7
-134 0 -134 0 -151 -26z"/>
<path d="M9278 5073 c7 -3 16 -2 19 1 4 3 -2 6 -13 5 -11 0 -14 -3 -6 -6z"/>
<path d="M7555 5060 c11 -5 29 -8 40 -8 16 0 15 2 -5 8 -34 11 -60 11 -35 0z"/>
<path d="M9345 5059 c22 -4 49 -8 60 -7 16 0 15 2 -5 8 -14 4 -41 8 -60 8
l-35 0 40 -9z"/>
<path d="M685 5030 c-18 -20 -17 -20 18 -20 42 0 87 15 87 30 0 5 -20 10 -43
10 -31 0 -49 -6 -62 -20z"/>
<path d="M3921 5028 l-13 -21 111 7 c60 3 117 9 126 12 37 14 -4 24 -103 24
-99 0 -108 -2 -121 -22z"/>
<path d="M7720 5020 c14 -4 34 -8 45 -8 16 0 15 2 -5 8 -14 4 -34 8 -45 8 -16
0 -15 -2 5 -8z"/>
<path d="M9518 5023 c7 -3 16 -2 19 1 4 3 -2 6 -13 5 -11 0 -14 -3 -6 -6z"/>
<path d="M9558 5013 c6 -2 18 -2 25 0 6 3 1 5 -13 5 -14 0 -19 -2 -12 -5z"/>
<path d="M12408 5013 c7 -3 16 -2 19 1 4 3 -2 6 -13 5 -11 0 -14 -3 -6 -6z"/>
<path d="M607 4989 c-10 -11 -17 -22 -15 -24 6 -7 68 24 68 35 0 18 -35 11
-53 -11z"/>
<path d="M3666 4985 c-16 -24 -20 -25 -136 -25 -109 0 -120 -2 -130 -20 -10
-19 -8 -20 42 -20 81 1 200 17 207 28 3 5 57 15 120 21 63 7 118 14 123 17 27
17 -4 24 -101 24 -105 0 -109 -1 -125 -25z"/>
<path d="M7875 4980 c33 -11 67 -18 75 -17 23 6 -27 23 -85 30 l-50 6 60 -19z"/>
<path d="M9685 4980 c69 -23 75 -23 75 -11 0 10 -25 16 -95 26 -34 4 -31 2 20
-15z"/>
<path d="M12484 4976 c23 -18 36 -20 36 -6 0 6 -4 10 -9 10 -5 0 -18 3 -28 6
-16 5 -16 4 1 -10z"/>
<path d="M520 4940 c-8 -14 -8 -20 0 -20 18 0 50 20 50 30 0 18 -39 10 -50
-10z"/>
<path d="M5215 4938 l-20 -21 74 7 c80 8 101 14 101 27 0 5 -30 9 -67 8 -55 0
-72 -4 -88 -21z"/>
<path d="M9868 4933 c7 -3 16 -2 19 1 4 3 -2 6 -13 5 -11 0 -14 -3 -6 -6z"/>
<path d="M9908 4923 c7 -3 16 -2 19 1 4 3 -2 6 -13 5 -11 0 -14 -3 -6 -6z"/>
<path d="M392 4900 c-10 -17 -10 -20 5 -20 43 0 92 14 97 26 4 11 -6 14 -42
14 -36 0 -50 -5 -60 -20z"/>
<path d="M3231 4899 c-13 -22 -12 -22 34 -15 26 3 60 6 75 6 16 0 30 7 34 15
4 12 -6 15 -62 15 -58 0 -69 -3 -81 -21z"/>
<path d="M5042 4899 c-13 -20 -12 -21 55 -14 37 4 75 13 83 21 12 12 4 14 -55
14 -60 0 -72 -3 -83 -21z"/>
<path d="M8200 4890 c34 -11 60 -11 35 0 -11 5 -29 8 -40 8 -16 0 -15 -2 5 -8z"/>
<path d="M10025 4890 c27 -12 43 -12 25 0 -8 5 -22 9 -30 9 -10 0 -8 -3 5 -9z"/>
<path d="M302 4860 c-16 -27 -16 -27 18 -22 17 2 30 10 30 17 0 7 6 16 13 18
6 3 -2 6 -18 6 -20 1 -34 -6 -43 -19z"/>
<path d="M3052 4855 c-11 -23 -17 -25 -80 -25 -62 0 -92 -10 -92 -32 0 -12
133 3 150 17 8 7 49 16 92 20 63 6 77 10 81 26 5 17 -1 19 -67 19 -68 0 -74
-2 -84 -25z"/>
<path d="M4862 4855 c-10 -22 -18 -25 -64 -25 -42 0 -56 -4 -66 -20 -10 -17
-23 -20 -80 -20 -61 0 -92 -10 -92 -30 0 -11 135 2 150 15 8 7 38 16 67 20 29
4 57 13 63 20 6 7 45 16 89 20 66 6 80 10 84 26 5 17 -1 19 -67 19 -68 0 -74
-2 -84 -25z"/>
<path d="M10670 4838 c41 -45 50 -53 50 -45 0 2 -21 23 -47 47 l-48 45 45 -47z"/>
<path d="M8385 4840 c11 -5 27 -9 35 -9 9 0 8 4 -5 9 -11 5 -27 9 -35 9 -9 0
-8 -4 5 -9z"/>
<path d="M10195 4840 c11 -5 27 -9 35 -9 9 0 8 4 -5 9 -11 5 -27 9 -35 9 -9 0
-8 -4 5 -9z"/>
<path d="M212 4809 c-13 -20 -12 -21 20 -14 40 9 48 13 48 26 0 18 -55 9 -68
-12z"/>
<path d="M8510 4806 c0 -2 9 -6 20 -9 11 -3 18 -1 14 4 -5 9 -34 13 -34 5z"/>
<path d="M2763 4775 c-7 -8 -13 -17 -13 -20 0 -11 95 7 110 21 12 12 7 14 -35
14 -30 -1 -55 -6 -62 -15z"/>
<path d="M8640 4766 c0 -2 9 -6 20 -9 11 -3 20 -1 20 4 0 5 -9 9 -20 9 -11 0
-20 -2 -20 -4z"/>
<path d="M2584 4725 l-12 -24 62 5 c62 6 106 20 106 36 0 4 -33 8 -72 8 -68 0
-74 -2 -84 -25z"/>
<path d="M4394 4725 l-12 -24 62 5 c62 6 106 20 106 36 0 4 -33 8 -72 8 -68 0
-74 -2 -84 -25z"/>
<path d="M2452 4680 c-10 -16 -23 -20 -65 -20 -48 0 -55 -3 -65 -25 -11 -23
-17 -25 -79 -26 l-68 -1 54 -10 c44 -8 60 -7 80 5 14 8 45 18 69 22 23 4 42
10 42 15 0 12 58 30 95 30 20 0 35 6 39 15 9 25 -86 21 -102 -5z"/>
<path d="M4262 4680 c-10 -16 -23 -20 -67 -20 -30 0 -55 -2 -55 -4 0 -2 -3
-12 -7 -21 -5 -15 -1 -16 35 -10 22 3 58 15 79 26 20 10 51 19 69 19 17 0 37
7 44 15 11 13 6 15 -36 15 -38 0 -52 -4 -62 -20z"/>
<path d="M8930 4676 c0 -2 11 -6 25 -8 14 -3 25 -1 25 3 0 5 -11 9 -25 9 -14
0 -25 -2 -25 -4z"/>
<path d="M9063 4634 c21 -9 41 -14 44 -10 10 9 1 14 -42 20 l-40 7 38 -17z"/>
<path d="M4012 4598 c-21 -21 -13 -25 38 -18 73 9 89 30 24 30 -27 0 -55 -5
-62 -12z"/>
<path d="M9208 4583 c6 -2 18 -2 25 0 6 3 1 5 -13 5 -14 0 -19 -2 -12 -5z"/>
<path d="M11018 4583 c6 -2 18 -2 25 0 6 3 1 5 -13 5 -14 0 -19 -2 -12 -5z"/>
<path d="M3829 4553 c-13 -15 -8 -16 58 -10 107 9 128 26 32 27 -59 0 -80 -4
-90 -17z"/>
<path d="M9348 4543 c7 -3 16 -2 19 1 4 3 -2 6 -13 5 -11 0 -14 -3 -6 -6z"/>
<path d="M3705 4513 l-17 -26 53 6 c47 6 68 18 69 40 0 4 -20 7 -44 7 -36 0
-47 -4 -61 -27z"/>
<path d="M9478 4493 c7 -3 16 -2 19 1 4 3 -2 6 -13 5 -11 0 -14 -3 -6 -6z"/>
<path d="M11248 4493 c7 -3 16 -2 19 1 4 3 -2 6 -13 5 -11 0 -14 -3 -6 -6z"/>
<path d="M3579 4468 c-8 -16 -5 -18 26 -18 36 0 75 14 75 28 0 4 -21 7 -46 7
-34 0 -49 -5 -55 -17z"/>
<path d="M3452 4430 c-11 -18 -10 -20 16 -20 36 0 92 19 92 31 0 5 -21 9 -48
9 -36 0 -50 -5 -60 -20z"/>
<path d="M3330 4395 c0 -7 -8 -19 -17 -25 -18 -11 13 -9 90 6 49 10 33 34 -23
34 -37 0 -50 -4 -50 -15z"/>
<path d="M3233 4341 c-10 -17 -9 -18 20 -12 37 8 49 31 15 31 -13 0 -28 -8
-35 -19z"/>
<path d="M3102 4295 c-10 -22 -18 -25 -60 -25 -37 0 -53 -5 -68 -21 l-19 -22
49 7 c27 4 60 15 73 23 14 9 47 21 76 28 68 15 74 35 9 35 -42 0 -50 -3 -60
-25z"/>
<path d="M10005 4290 c47 -22 55 -23 55 -10 0 5 -17 14 -37 19 -56 16 -63 12
-18 -9z"/>
<path d="M11640 4305 c0 -2 14 -11 30 -20 17 -9 30 -12 30 -7 0 5 -11 14 -25
20 -28 13 -35 14 -35 7z"/>
<path d="M2890 4215 c-7 -9 -11 -18 -8 -21 7 -7 55 12 63 25 10 17 -41 13 -55
-4z"/>
<path d="M1082 4170 c-16 -27 -15 -29 11 -23 46 12 64 43 24 43 -12 0 -28 -9
-35 -20z"/>
<path d="M2764 4166 c-11 -23 -10 -23 35 -18 80 8 99 42 24 42 -41 0 -50 -4
-59 -24z"/>
<path d="M990 4125 c-11 -13 -8 -15 18 -15 16 0 35 7 42 15 11 13 8 15 -18 15
-16 0 -35 -7 -42 -15z"/>
<path d="M2672 4125 c-11 -13 -9 -15 10 -15 13 0 32 7 42 15 19 14 18 15 -10
15 -16 -1 -35 -7 -42 -15z"/>
<path d="M899 4079 c-10 -20 -9 -21 17 -15 16 4 36 14 44 22 12 12 10 14 -18
14 -22 0 -35 -6 -43 -21z"/>
<path d="M2540 4075 c-10 -19 -21 -25 -46 -25 -19 0 -34 -6 -38 -15 -7 -20 7
-19 57 5 23 11 59 23 79 27 21 3 43 12 49 19 9 12 3 14 -38 14 -43 0 -51 -3
-63 -25z"/>
<path d="M12070 4041 c8 -5 26 -12 40 -15 l25 -7 -25 15 c-14 9 -32 15 -40 15
-13 0 -13 -1 0 -8z"/>
<path d="M770 3995 c-11 -13 -8 -15 18 -15 16 0 35 7 42 15 11 13 8 15 -18 15
-16 0 -35 -7 -42 -15z"/>
<path d="M2366 3995 c-4 -11 2 -15 20 -15 14 0 32 7 40 15 14 13 12 15 -19 15
-22 0 -37 -6 -41 -15z"/>
<path d="M8238 3923 c7 -3 16 -2 19 1 4 3 -2 6 -13 5 -11 0 -14 -3 -6 -6z"/>
<path d="M7938 3903 c6 -2 18 -2 25 0 6 3 1 5 -13 5 -14 0 -19 -2 -12 -5z"/>
<path d="M7778 3893 c12 -2 32 -2 45 0 12 2 2 4 -23 4 -25 0 -35 -2 -22 -4z"/>
<path d="M7643 3883 c9 -2 23 -2 30 0 6 3 -1 5 -18 5 -16 0 -22 -2 -12 -5z"/>
<path d="M7483 3873 c15 -2 37 -2 50 0 12 2 0 4 -28 4 -27 0 -38 -2 -22 -4z"/>
<path d="M558 3826 c-3 -15 -1 -23 6 -21 6 2 23 6 39 9 40 9 35 36 -7 36 -28
0 -34 -4 -38 -24z"/>
<path d="M7260 3815 c-25 -13 -40 -24 -35 -24 6 0 30 11 55 24 25 13 41 24 35
24 -5 0 -30 -11 -55 -24z"/>
<path d="M11130 3740 c33 -23 50 -30 50 -22 0 5 -11 14 -25 20 -32 15 -45 15
-25 2z"/>
<path d="M7020 3694 c-47 -25 -114 -64 -149 -87 -36 -23 -81 -47 -100 -54
l-36 -12 35 6 c19 3 60 23 91 44 31 20 99 61 152 89 54 29 97 54 97 56 0 6 0
6 -90 -42z"/>
<path d="M1724 3649 c-18 -20 -18 -20 11 -14 17 4 37 14 45 21 12 12 11 14
-11 14 -14 0 -34 -9 -45 -21z"/>
<path d="M1640 3610 c-9 -18 -8 -20 14 -20 15 0 30 8 36 20 9 18 8 20 -14 20
-15 0 -30 -8 -36 -20z"/>
<path d="M1504 3519 c-18 -20 -18 -20 11 -14 17 4 37 14 45 21 12 12 11 14
-11 14 -14 0 -34 -9 -45 -21z"/>
<path d="M1380 3435 c-11 -13 -9 -15 13 -15 13 0 30 7 37 15 11 13 9 15 -13
15 -13 0 -30 -7 -37 -15z"/>
<path d="M1210 3310 c-13 -23 -4 -25 39 -7 34 14 31 27 -5 27 -13 0 -28 -9
-34 -20z"/>
<path d="M992 3130 c-12 -19 -11 -20 15 -14 46 10 53 13 53 24 0 19 -55 11
-68 -10z"/>
</g>
</svg>
